grf
version=1
nRows=19
nColumns=37
inDegrees=no
endheader
time	ground_force_1_vx	ground_force_1_vy	ground_force_1_vz	ground_force_1_px	ground_force_1_py	ground_force_1_pz	ground_moment_1_mx	ground_moment_1_my	ground_moment_1_mz	ground_force_2_vx	ground_force_2_vy	ground_force_2_vz	ground_force_2_px	ground_force_2_py	ground_force_2_pz	ground_moment_2_mx	ground_moment_2_my	ground_moment_2_mz	ground_force_3_vx	ground_force_3_vy	ground_force_3_vz	ground_force_3_px	ground_force_3_py	ground_force_3_pz	ground_moment_3_mx	ground_moment_3_my	ground_moment_3_mz	ground_force_4_vx	ground_force_4_vy	ground_force_4_vz	ground_force_4_px	ground_force_4_py	ground_force_4_pz	ground_moment_4_mx	ground_moment_4_my	ground_moment_4_mz
      0.00000000	      0.00000000	     -0.00000000	      0.00000000	      0.00000000	      0.00000000	      0.00000000	      0.00000000	      0.00000000	      0.00000000	      0.00000000	     -0.00000000	      0.00000000	      0.00000000	      0.00000000	      0.00000000	      0.00000000	      0.00000000	      0.00000000	      0.39352044	    -46.42999652	   -685.62622070	   -271.18009063	   -743.35989498	      0.00000000	      0.00000000	     -0.00000000	   -466.76377783	      0.00000000	     -0.00000000	      0.00000000	      0.00000000	      0.00000000	      0.00000000	      0.00000000	      0.00000000	      0.00000000
      0.01000000	      0.00000000	     -0.00000000	      0.00000000	      0.00000000	      0.00000000	      0.00000000	      0.00000000	      0.00000000	      0.00000000	     -3.70515275	     -0.10004934	    -11.49694252	   -249.08606238	   -936.47797978	      0.00000000	      0.00000000	     -0.00000000	   -364.66876103	      0.75964762	    -46.95973594	   -687.08624268	   -271.51767960	   -743.35725789	      0.00000000	     -0.00000000	     -0.00000000	   -277.96725409	      0.00000000	     -0.00000000	      0.00000000	      0.00000000	      0.00000000	      0.00000000	      0.00000000	      0.00000000	      0.00000000
      0.02000000	      0.00000000	     -0.00000000	      0.00000000	      0.00000000	      0.00000000	      0.00000000	      0.00000000	      0.00000000	      0.00000000	     -2.59400320	      0.13907745	    -36.54813766	   -281.18239681	   -983.13947286	      0.00000000	      0.00000000	     -0.00000000	   -416.87333043	      1.46925655	    -47.40671552	   -686.73773193	   -271.45700627	   -742.85691318	      0.00000000	      0.00000000	     -0.00000000	   -219.08240715	      0.00000000	     -0.00000000	      0.00000000	      0.00000000	      0.00000000	      0.00000000	      0.00000000	      0.00000000	      0.00000000
      0.03000000	      0.00000000	     -0.00000000	      0.00000000	      0.00000000	      0.00000000	      0.00000000	      0.00000000	      0.00000000	      0.00000000	      3.04380107	     -0.95182037	    -54.47398376	   -297.94815416	   -982.14147395	      0.00000000	      0.00000000	     -0.00000000	   -216.07480096	      1.88479555	    -47.70460145	   -683.20367432	   -271.51621206	   -743.25673640	      0.00000000	      0.00000000	     -0.00000000	    -98.27603718	      0.00000000	     -0.00000000	      0.00000000	      0.00000000	      0.00000000	      0.00000000	      0.00000000	      0.00000000	      0.00000000
      0.04000000	      0.00000000	     -0.00000000	      0.00000000	      0.00000000	      0.00000000	      0.00000000	      0.00000000	      0.00000000	      0.00000000	      4.96693802	     -1.19801354	    -77.90749359	   -304.69963495	   -992.49561940	      0.00000000	      0.00000000	     -0.00000000	   -238.85022648	      2.25672238	    -47.21331807	   -677.07330322	   -271.15040689	   -742.89272596	      0.00000000	      0.00000000	      0.00000000	    150.96151220	      0.00000000	     -0.00000000	      0.00000000	      0.00000000	      0.00000000	      0.00000000	      0.00000000	      0.00000000	      0.00000000
      0.05000000	      0.00000000	     -0.00000000	      0.00000000	      0.00000000	      0.00000000	      0.00000000	      0.00000000	      0.00000000	      0.00000000	      5.03521395	     -0.18861112	    -99.71977997	   -305.55227428	   -989.36314453	      0.00000000	      0.00000000	     -0.00000000	    -88.39366299	      1.88064251	    -46.64446275	   -668.30401611	   -270.91094179	   -743.25833113	      0.00000000	      0.00000000	      0.00000000	    422.23742875	      0.00000000	     -0.00000000	      0.00000000	      0.00000000	      0.00000000	      0.00000000	      0.00000000	      0.00000000	      0.00000000
      0.06000000	      0.00000000	     -0.00000000	      0.00000000	      0.00000000	      0.00000000	      0.00000000	      0.00000000	      0.00000000	      0.00000000	      5.75919294	      0.46609354	   -122.91227722	   -303.68279960	   -997.01376779	      0.00000000	      0.00000000	      0.00000000	     60.47235033	      1.33065785	    -44.86741650	   -657.29864502	   -269.84791502	   -742.47115267	      0.00000000	      0.00000000	      0.00000000	    505.74289454	      0.00000000	     -0.00000000	      0.00000000	      0.00000000	      0.00000000	      0.00000000	      0.00000000	      0.00000000	      0.00000000
      0.07000000	      0.00000000	     -0.00000000	      0.00000000	      0.00000000	      0.00000000	      0.00000000	      0.00000000	      0.00000000	      0.00000000	      6.91885185	      1.79267359	   -141.03845215	   -306.05279616	   -995.76969189	      0.00000000	      0.00000000	      0.00000000	     93.16512759	      0.53226095	    -42.98168568	   -640.65240479	   -268.70727888	   -742.82213487	      0.00000000	      0.00000000	      0.00000000	    746.75480898	      0.00000000	     -0.00000000	      0.00000000	      0.00000000	      0.00000000	      0.00000000	      0.00000000	      0.00000000	      0.00000000
      0.08000000	      0.00000000	     -0.00000000	      0.00000000	      0.00000000	      0.00000000	      0.00000000	      0.00000000	      0.00000000	      0.00000000	      7.96942282	      2.41645718	   -156.22364807	   -303.27590679	   -997.90930043	      0.00000000	      0.00000000	      0.00000000	    222.54609393	     -0.28662015	    -40.35281370	   -623.30944824	   -266.72256082	   -742.70481011	      0.00000000	      0.00000000	      0.00000000	    691.22339059	      0.00000000	     -0.00000000	      0.00000000	      0.00000000	      0.00000000	      0.00000000	      0.00000000	      0.00000000	      0.00000000
      0.09000000	      0.00000000	     -0.00000000	      0.00000000	      0.00000000	      0.00000000	      0.00000000	      0.00000000	      0.00000000	      0.00000000	      7.70197201	      3.57503200	   -166.15014648	   -299.93815768	   -999.37167530	      0.00000000	      0.00000000	      0.00000000	     67.42912684	     -1.32173766	    -38.38081348	   -600.77044678	   -264.30919861	   -744.10042816	      0.00000000	      0.00000000	      0.00000000	    851.58562363	      0.00000000	     -0.00000000	      0.00000000	      0.00000000	      0.00000000	      0.00000000	      0.00000000	      0.00000000	      0.00000000
      0.10000000	      0.00000000	     -0.00000000	      0.00000000	      0.00000000	      0.00000000	      0.00000000	      0.00000000	      0.00000000	      0.00000000	      6.77999878	      5.15881062	   -174.27516174	   -295.48101061	  -1001.33474569	      0.00000000	      0.00000000	     -0.00000000	   -233.23568927	     -2.93742684	    -35.84868215	   -582.77130127	   -262.42568715	   -742.47625470	      0.00000000	     -0.00000000	      0.00000000	   1084.18763337	      0.00000000	     -0.00000000	      0.00000000	      0.00000000	      0.00000000	      0.00000000	      0.00000000	      0.00000000	      0.00000000
      0.11000000	      0.00000000	     -0.00000000	      0.00000000	      0.00000000	      0.00000000	      0.00000000	      0.00000000	      0.00000000	      0.00000000	      4.58003044	      7.63494730	   -180.03959656	   -290.46964207	   -999.73174278	      0.00000000	     -0.00000000	      0.00000000	    -67.73609542	     -3.06544508	    -34.22955295	   -559.53515625	   -260.44981659	   -743.74894405	      0.00000000	      0.00000000	      0.00000000	    898.62915469	      0.00000000	     -0.00000000	      0.00000000	      0.00000000	      0.00000000	      0.00000000	      0.00000000	      0.00000000	      0.00000000
      0.12000000	      0.00000000	     -0.00000000	      0.00000000	      0.00000000	      0.00000000	      0.00000000	      0.00000000	      0.00000000	      0.00000000	      1.67620063	      9.87238693	   -186.62785339	   -283.72867283	   -997.81480222	      0.00000000	      0.00000000	     -0.00000000	   -262.82656190	     -3.78546798	    -31.39352956	   -539.40386963	   -258.27827640	   -744.52323141	      0.00000000	      0.00000000	      0.00000000	    947.28599785	      0.00000000	     -0.00000000	      0.00000000	      0.00000000	      0.00000000	      0.00000000	      0.00000000	      0.00000000	      0.00000000
      0.13000000	      0.00000000	     -0.00000000	      0.00000000	      0.00000000	      0.00000000	      0.00000000	      0.00000000	      0.00000000	      0.00000000	     -0.19063154	     11.71602440	   -196.63624573	   -281.08563608	  -1002.11666407	      0.00000000	      0.00000000	     -0.00000000	   -301.71201273	     -4.46421122	    -29.99131545	   -522.52416992	   -256.53970433	   -744.26536888	      0.00000000	      0.00000000	      0.00000000	    955.15401420	      0.00000000	     -0.00000000	      0.00000000	      0.00000000	      0.00000000	      0.00000000	      0.00000000	      0.00000000	      0.00000000
      0.14000000	      0.00000000	     -0.00000000	      0.00000000	      0.00000000	      0.00000000	      0.00000000	      0.00000000	      0.00000000	      0.00000000	     -2.06096768	     13.34778881	   -208.88786316	   -278.16320986	  -1004.75355660	      0.00000000	      0.00000000	     -0.00000000	   -477.48880151	     -4.47518362	    -28.77409705	   -508.95175171	   -255.24985504	   -743.72998936	      0.00000000	      0.00000000	      0.00000000	    847.77578249	      0.00000000	     -0.00000000	      0.00000000	      0.00000000	      0.00000000	      0.00000000	      0.00000000	      0.00000000	      0.00000000
      0.15000000	      0.00000000	     -0.00000000	      0.00000000	      0.00000000	      0.00000000	      0.00000000	      0.00000000	      0.00000000	      0.00000000	     -3.42114902	     15.25922394	   -220.96731567	   -276.06375444	  -1005.17181120	      0.00000000	      0.00000000	     -0.00000000	   -457.49841609	     -4.35610347	    -27.86087570	   -493.27825928	   -253.58692372	   -745.48950544	      0.00000000	      0.00000000	      0.00000000	    872.18670723	      0.00000000	     -0.00000000	      0.00000000	      0.00000000	      0.00000000	      0.00000000	      0.00000000	      0.00000000	      0.00000000
      0.16000000	      0.00000000	     -0.00000000	      0.00000000	      0.00000000	      0.00000000	      0.00000000	      0.00000000	      0.00000000	      0.00000000	     -4.86639786	     16.46259689	   -234.89968872	   -275.92905777	  -1004.05569446	      0.00000000	      0.00000000	     -0.00000000	   -818.43697340	     -4.43554164	    -27.34923133	   -481.40805054	   -252.72889456	   -744.82149152	      0.00000000	      0.00000000	      0.00000000	    817.75797129	      0.00000000	     -0.00000000	      0.00000000	      0.00000000	      0.00000000	      0.00000000	      0.00000000	      0.00000000	      0.00000000
      0.17000000	      0.00000000	     -0.00000000	      0.00000000	      0.00000000	      0.00000000	      0.00000000	      0.00000000	      0.00000000	      0.00000000	     -5.34390974	     17.99027252	   -250.61964417	   -274.85621143	  -1005.73591974	      0.00000000	      0.00000000	     -0.00000000	   -787.24560903	     -4.44456615	    -26.16491660	   -469.06744385	   -251.94128015	   -744.94642916	      0.00000000	      0.00000000	      0.00000000	    735.72496036	      0.00000000	     -0.00000000	      0.00000000	      0.00000000	      0.00000000	      0.00000000	      0.00000000	      0.00000000	      0.00000000
      0.18000000	      0.00000000	     -0.00000000	      0.00000000	      0.00000000	      0.00000000	      0.00000000	      0.00000000	      0.00000000	      0.00000000	     -5.57743406	     19.36697006	   -267.81216431	   -274.08701536	  -1005.99548354	      0.00000000	      0.00000000	     -0.00000000	   -664.85338603	     -4.52869157	    -24.99503668	   -456.20153809	   -250.87038966	   -746.44676622	      0.00000000	      0.00000000	      0.00000000	    591.24895590	      0.00000000	     -0.00000000	      0.00000000	      0.00000000	      0.00000000	      0.00000000	      0.00000000	      0.00000000	      0.00000000
